PathFileType	4	(X/Y/Z)	SUBJ63_3_walk_RCNL2025.trc
DataRate	CameraRate	NumFrames	NumMarkers	Units	OrigDataRate	OrigDataStartFrame	OrigNumFrames
100	100	4	25	mm	100	1	228
Frame#	Time	R_Shoulder			L_Shoulder			C7			J_Notch			R_Elbow			L_Elbow			R_Wrist			L_Wrist			R_Asis			L_Asis			Sacral			Thoracic			Sternum			R_Thigh_Lateral			R_Knee_Lateral			R_Shank_Lateral			R_Ankle_Lateral			R_Heel			R_Toe			L_Thigh_Lateral			L_Knee_Lateral			L_Shank_Lateral			L_Ankle_Lateral			L_Heel			L_Toe		
		X1	Y1	Z1	X2	Y2	Z2	X3	Y3	Z3	X4	Y4	Z4	X5	Y5	Z5	X6	Y6	Z6	X7	Y7	Z7	X8	Y8	Z8	X9	Y9	Z9	X10	Y10	Z10	X11	Y11	Z11	X12	Y12	Z12	X13	Y13	Z13	X14	Y14	Z14	X15	Y15	Z15	X16	Y16	Z16	X17	Y17	Z17	X18	Y18	Z18	X19	Y19	Z19	X20	Y20	Z20	X21	Y21	Z21	X22	Y22	Z22	X23	Y23	Z23	X24	Y24	Z24	X25	Y25	Z25
1	0.00000000	-1058.857422	1301.192139	-178.551147	-1053.563110	1292.328125	-514.308655	-1122.337158	1361.623657	-352.488983	-1013.016968	1251.545410	-346.256805	-1104.407593	1024.945801	-69.459221	-1114.979858	1000.360413	-600.751953	-1026.663452	811.929688	-30.073212	-1053.644592	789.807404	-651.126007	-1029.842651	854.599243	-216.446762	-990.845093	847.364319	-463.752380	-1229.477783	859.410095	-374.568817	-1214.446777	1183.673950	-349.975616	-975.385437	1072.902222	-334.440430	-998.470947	524.454407	-152.442444	-983.044373	472.824310	-197.933624	-1066.809326	326.732635	-156.940674	-1149.460449	133.140656	-236.631058	-1183.440063	146.948135	-293.887665	-1052.401245	73.748993	-226.118912	-1063.875977	464.546387	-537.177979	-1077.264038	442.195587	-468.548248	-1097.669067	249.822083	-497.352936	-1140.953003	61.295418	-417.209930	-1190.154297	51.730522	-361.634186	-1027.405640	44.386978	-407.706390
2	0.01000000	-1047.179565	1300.872803	-177.829742	-1037.395020	1293.626587	-513.404114	-1108.911255	1361.645264	-352.595490	-999.282410	1251.814453	-345.108673	-1093.654053	1024.134399	-69.707314	-1096.013306	1000.853943	-602.035828	-1016.733917	810.962463	-29.716053	-1024.816071	792.203033	-647.427582	-1014.901611	855.552429	-217.545532	-977.600037	846.552307	-464.218872	-1215.206299	859.509155	-373.461395	-1200.270874	1183.239136	-351.260925	-961.465454	1073.985840	-333.610687	-978.587769	526.554932	-153.830994	-962.911316	474.485046	-199.626999	-1037.731445	321.922821	-157.928619	-1105.593140	122.536568	-237.266632	-1139.952759	133.252899	-294.823639	-1004.080566	71.233131	-225.468323	-1060.403687	464.566254	-537.406372	-1073.907104	442.108765	-468.604248	-1096.521729	250.045135	-497.354523	-1140.685547	61.684086	-416.918091	-1189.733765	52.504162	-361.228394	-1027.156250	44.299999	-407.809448
3	0.02000000	-1035.435181	1300.049316	-177.163940	-1020.963440	1294.395142	-512.481140	-1095.574097	1361.214233	-352.881470	-985.561584	1251.555664	-344.022308	-1082.787354	1022.893738	-69.824814	-1077.208618	1000.863281	-603.422974	-1006.681274	809.588196	-29.161533	-995.611023	794.803467	-643.666473	-999.712830	855.799988	-218.641861	-964.294373	845.233459	-464.802124	-1200.875977	859.069763	-372.121399	-1186.120728	1182.332031	-352.472321	-947.466492	1074.490601	-332.799988	-959.364990	527.903625	-155.138779	-943.671082	475.216156	-201.195419	-1008.618408	316.264679	-158.899918	-1061.024780	112.465187	-238.025299	-1095.431152	120.043083	-296.016388	-955.840637	69.625076	-224.580124	-1056.563477	464.550232	-537.631226	-1070.175537	441.982727	-468.640717	-1095.193237	250.283417	-497.312775	-1140.398193	62.124062	-416.500305	-1189.347046	53.552284	-360.860840	-1026.857788	44.204895	-407.936188
4	0.03000000	-1023.570007	1298.731689	-176.535400	-1004.440552	1294.608154	-511.553528	-1082.285400	1360.340454	-353.273315	-971.854431	1250.776367	-343.007965	-1071.774292	1021.242493	-69.807289	-1058.419312	1000.377319	-604.769775	-996.490051	807.816833	-28.422979	-966.482056	797.481720	-639.954803	-984.284729	855.333740	-219.666443	-950.879333	843.442932	-465.515747	-1186.482178	858.127075	-370.629669	-1172.007080	1180.988647	-353.570923	-933.397034	1074.367554	-332.000488	-940.937012	528.388428	-156.336441	-925.305420	475.025696	-202.610886	-979.606262	310.073395	-159.857941	-1015.965942	103.216118	-238.834106	-1050.090454	107.668144	-297.360016	-907.916382	69.095886	-223.535736	-1052.347290	464.469269	-537.827759	-1066.035156	441.813873	-468.630554	-1093.702026	250.538971	-497.193146	-1140.098633	62.625523	-415.906677	-1188.965454	54.879124	-360.445862	-1026.490967	44.103535	-408.068695
